<svg width="487" height="150" viewBox="0 0 487 150" fill="none" xmlns="http://www.w3.org/2000/svg">
<path d="M41.3701 123C42.7401 123.92 44.1101 124.83 45.4501 125.69C68.1001 113.46 108.56 88.88 116.6 65.39V59.72C101.08 86.95 57.9401 113.51 41.3701 123.01V123Z" fill="#EAEAEA"/>
<path d="M116.6 80.13V75.78C103.19 97.14 70.6698 117.28 50.0298 128.54C52.2298 129.86 54.2698 131.03 56.0998 132.05C77.9098 119.5 107.44 99.68 116.6 80.13Z" fill="#DDDDDD"/>
<path d="M59.8599 134.08C62.5999 135.52 64.2899 136.32 64.2999 136.32C64.3699 136.35 115.13 112.09 116.54 87.47C104.85 105.46 79.6599 122.58 59.8699 134.08H59.8599Z" fill="#D5D5D5"/>
<path d="M25.0698 109.99L59.2498 25.57C61.1198 21.07 62.0498 19.36 63.5998 19.36C64.9998 19.36 65.9298 20.75 67.4898 24.34C69.5698 29.1 78.1898 50.47 87.1598 72.57C82.3398 77.23 77.0498 81.56 72.4798 85.03L68.6298 74.71L60.4998 52.5C60.3398 51.88 60.1798 51.11 59.7098 51.11C59.2398 51.11 58.9298 51.88 58.7698 52.5L49.2898 77.77L35.4298 113.8L34.2498 116.81C58.5398 103.3 111.2 68.84 113.32 42.61C113.82 36.57 111.53 31.28 106.36 26.51C96.8698 20.46 81.6698 12.99 64.3098 12.99C35.1998 12.99 12.0098 34.04 12.0098 34.04V86.44C12.0098 94.58 17.5798 102.73 25.0798 110L25.0698 109.99Z" fill="#D5D5D5"/>
<path d="M64.3 6.57C96.44 6.57 122.04 29.8 122.04 29.8V87.65C122.04 115.19 64.45 142.72 64.3 142.72C64.15 142.72 6.57 115.2 6.57 87.65V29.8C6.57 29.8 32.15 6.57 64.3 6.57ZM64.3 0C30.01 0 3.27 23.93 2.15 24.95L0 26.9V87.65C0 101.32 10.62 115.85 31.55 130.85C39.28 136.39 46.94 140.91 52.02 143.73C62.02 149.28 62.87 149.28 64.29 149.28C65.71 149.28 66.55 149.28 76.56 143.73C81.63 140.91 89.31 136.39 97.04 130.85C117.98 115.85 128.6 101.31 128.6 87.65V26.9L126.45 24.95C125.33 23.93 98.59 0 64.3 0Z" fill="#E9E9E9"/>
<path d="M267.27 51.12C264.27 51.12 262.07 51.67 260.68 52.77C259.28 53.87 258.58 55.67 258.58 58.16C258.58 62.06 260.95 64.01 265.7 64.01H280.69C283.69 64.01 286.28 64.27 288.45 64.79C290.62 65.32 292.4 66.17 293.77 67.38C295.15 68.58 296.17 70.15 296.84 72.1C297.51 74.05 297.85 76.42 297.85 79.22C297.85 84.92 296.32 89.02 293.24 91.55C290.17 94.07 285.43 95.33 279.04 95.33H248.92V85.74H277.24C280.24 85.74 282.45 85.32 283.87 84.47C285.29 83.62 286.01 82.02 286.01 79.68C286.01 77.34 285.36 75.64 284.06 74.77C282.77 73.9 280.74 73.46 277.99 73.46H264.65C258.46 73.46 253.92 72.25 251.05 69.83C248.18 67.41 246.74 63.47 246.74 58.03C246.74 52.18 248.29 47.98 251.39 45.4C254.49 42.83 259.23 41.54 265.63 41.54H295.23V51.14H267.28L267.27 51.12Z" fill="white"/>
<path d="M327.44 55.8301C338.28 55.8301 343.7 60.7501 343.7 70.6001V95.3301H315.67C311.72 95.3301 308.7 94.3401 306.6 92.3701C304.51 90.4001 303.46 87.5901 303.46 83.9401C303.46 79.4001 304.71 76.1601 307.2 74.2301C309.7 72.3101 313.7 71.3501 319.19 71.3501H332.9V70.3801C332.9 67.8801 332.15 66.1901 330.65 65.3201C329.15 64.4401 326.76 64.0101 323.45 64.0101H306.06V55.8401H327.42L327.44 55.8301ZM332.99 87.3801V79.2101H320.7C318.45 79.2101 316.81 79.5101 315.79 80.1101C314.76 80.7101 314.25 81.8901 314.25 83.6301C314.25 85.2801 314.72 86.3101 315.67 86.7401C316.62 87.1701 318.04 87.3801 319.94 87.3801H332.98H332.99Z" fill="white"/>
<path d="M348.95 63.7V55.83H356.44V51.78C356.44 49.78 356.6 48.12 356.93 46.8C357.25 45.48 357.83 44.43 358.65 43.66C359.47 42.88 360.58 42.33 361.99 42.01C363.38 41.68 365.14 41.52 367.23 41.52H377.12V49.16H372.18C370.53 49.16 369.29 49.41 368.47 49.91C367.65 50.41 367.24 51.33 367.24 52.68V55.82H377.13V63.69H367.24V95.31H356.45V63.69H348.96L348.95 63.7Z" fill="white"/>
<path d="M399.83 95.33C393.24 95.33 388.28 93.68 384.96 90.38C381.64 87.08 379.97 82.16 379.97 75.62C379.97 69.08 381.63 64.21 384.96 60.86C388.28 57.51 393.24 55.84 399.83 55.84H415.05V64.09H401.26C399.61 64.09 398.18 64.18 396.95 64.35C395.73 64.53 394.73 64.89 393.95 65.44C393.18 65.99 392.59 66.75 392.19 67.73C391.78 68.7 391.56 69.97 391.51 71.51H415.04V79.76H391.51C391.56 81.4 391.77 82.71 392.15 83.65C392.52 84.6 393.1 85.33 393.87 85.86C394.64 86.38 395.63 86.72 396.83 86.87C398.03 87.02 399.48 87.1 401.18 87.1H415.04V95.34H399.82L399.83 95.33Z" fill="white"/>
<path d="M183.79 41.52L206.72 95.33H194.13L189.19 82.52H165.81L161.01 95.33H149.02L171.8 41.52H183.79ZM169.47 72.92H185.51L177.34 52.24L169.47 72.92Z" fill="white"/>
<path d="M209.27 95.33V41.52H220.13V95.33H209.27Z" fill="white"/>
<path d="M228.9 95.33V41.52H239.76V95.33H228.9Z" fill="white"/>
<path d="M422.84 95.33V41.52H434.68V95.33H422.84Z" fill="white"/>
<path d="M440.22 50.96V41.6H486.76V50.96H469.3V95.32H457.61V50.96H440.22Z" fill="white"/>
</svg>
