<svg width="64" height="64" viewBox="0 0 64 64" fill="none" xmlns="http://www.w3.org/2000/svg">
<rect width="64" height="64" fill="#F3F5FF"/>
<path d="M47.4841 46.0766C47.3908 46.0766 47.3013 46.0396 47.2354 45.9736C47.1694 45.9077 47.1323 45.8182 47.1323 45.7249V34.4699C47.1323 34.0968 46.9841 33.739 46.7203 33.4751C46.4564 33.2113 46.0986 33.0631 45.7255 33.0631H43.6152V32.0079C43.6152 31.7281 43.504 31.4597 43.3061 31.2618C43.1082 31.0639 42.8398 30.9528 42.56 30.9528C42.2802 30.9528 42.0118 31.0639 41.8139 31.2618C41.616 31.4597 41.5048 31.7281 41.5048 32.0079V33.0631C41.1317 33.0631 40.7739 33.2113 40.51 33.4751C40.2462 33.739 40.098 34.0968 40.098 34.4699V45.3732C40.098 45.5598 40.0239 45.7387 39.8919 45.8706C39.76 46.0025 39.5811 46.0766 39.3945 46.0766H38.6911C38.5045 46.0766 38.3256 46.0025 38.1937 45.8706C38.0618 45.7387 37.9877 45.5598 37.9877 45.3732V22.1598C37.9877 21.7867 37.8394 21.4288 37.5756 21.165C37.3118 20.9012 36.9539 20.7529 36.5808 20.7529H27.4361C27.063 20.7529 26.7051 20.9012 26.4413 21.165C26.1775 21.4288 26.0292 21.7867 26.0292 22.1598V45.3732C26.0292 45.5598 25.9551 45.7387 25.8232 45.8706C25.6913 46.0025 25.5124 46.0766 25.3258 46.0766H24.6224C24.4358 46.0766 24.2569 46.0025 24.125 45.8706C23.993 45.7387 23.9189 45.5598 23.9189 45.3732V34.4699C23.9189 34.0968 23.7707 33.739 23.5069 33.4751C23.243 33.2113 22.8852 33.0631 22.5121 33.0631V32.0079C22.5121 31.7281 22.4009 31.4597 22.203 31.2618C22.0051 31.0639 21.7368 30.9528 21.4569 30.9528C21.1771 30.9528 20.9087 31.0639 20.7108 31.2618C20.5129 31.4597 20.4018 31.7281 20.4018 32.0079V33.0631H18.2914C17.9183 33.0631 17.5605 33.2113 17.2966 33.4751C17.0328 33.739 16.8846 34.0968 16.8846 34.4699V45.7249C16.8846 45.8182 16.8475 45.9077 16.7816 45.9736C16.7156 46.0396 16.6261 46.0766 16.5328 46.0766C16.1597 46.0766 15.8019 46.2249 15.538 46.4887C15.2742 46.7525 15.126 47.1104 15.126 47.4835C15.126 47.8566 15.2742 48.2145 15.538 48.4783C15.8019 48.7422 16.1597 48.8904 16.5328 48.8904H47.4841C47.8572 48.8904 48.215 48.7422 48.4789 48.4783C48.7427 48.2145 48.8909 47.8566 48.8909 47.4835C48.8909 47.1104 48.7427 46.7525 48.4789 46.4887C48.215 46.2249 47.8572 46.0766 47.4841 46.0766ZM29.1947 24.2701H34.8222C35.102 24.2701 35.3704 24.3813 35.5683 24.5792C35.7662 24.777 35.8774 25.0454 35.8774 25.3253C35.8774 25.6051 35.7662 25.8735 35.5683 26.0714C35.3704 26.2693 35.102 26.3804 34.8222 26.3804H29.1947C28.9149 26.3804 28.6465 26.2693 28.4486 26.0714C28.2507 25.8735 28.1396 25.6051 28.1396 25.3253C28.1396 25.0454 28.2507 24.777 28.4486 24.5792C28.6465 24.3813 28.9149 24.2701 29.1947 24.2701ZM29.1947 29.8976H34.8222C35.102 29.8976 35.3704 30.0088 35.5683 30.2067C35.7662 30.4045 35.8774 30.6729 35.8774 30.9528C35.8774 31.2326 35.7662 31.501 35.5683 31.6989C35.3704 31.8967 35.102 32.0079 34.8222 32.0079H29.1947C28.9149 32.0079 28.6465 31.8967 28.4486 31.6989C28.2507 31.501 28.1396 31.2326 28.1396 30.9528C28.1396 30.6729 28.2507 30.4045 28.4486 30.2067C28.6465 30.0088 28.9149 29.8976 29.1947 29.8976ZM29.1947 35.5251H34.8222C35.102 35.5251 35.3704 35.6363 35.5683 35.8341C35.7662 36.032 35.8774 36.3004 35.8774 36.5803C35.8774 36.8601 35.7662 37.1285 35.5683 37.3264C35.3704 37.5242 35.102 37.6354 34.8222 37.6354H29.1947C28.9149 37.6354 28.6465 37.5242 28.4486 37.3264C28.2507 37.1285 28.1396 36.8601 28.1396 36.5803C28.1396 36.3004 28.2507 36.032 28.4486 35.8341C28.6465 35.6363 28.9149 35.5251 29.1947 35.5251ZM35.1739 43.2629H28.843C28.5631 43.2629 28.2948 43.1517 28.0969 42.9539C27.899 42.756 27.7878 42.4876 27.7878 42.2077C27.7878 41.9279 27.899 41.6595 28.0969 41.4616C28.2948 41.2638 28.5631 41.1526 28.843 41.1526H35.1739C35.4538 41.1526 35.7221 41.2638 35.92 41.4616C36.1179 41.6595 36.2291 41.9279 36.2291 42.2077C36.2291 42.4876 36.1179 42.756 35.92 42.9539C35.7221 43.1517 35.4538 43.2629 35.1739 43.2629Z" fill="#596AFF"/>
</svg>
