<svg width="98" height="98" viewBox="0 0 98 98" fill="none" xmlns="http://www.w3.org/2000/svg">
<rect width="98" height="98" fill="#FFF1D7"/>
<path fill-rule="evenodd" clip-rule="evenodd" d="M49.9406 20.725C50.4018 20.311 51.0119 20.0941 51.6363 20.1219C64.8371 20.5171 75.8695 30.1001 77.869 42.9081C77.8817 42.9846 77.8817 43.0626 77.869 43.1391C77.9121 43.7451 77.7073 44.3429 77.2999 44.8004C76.8925 45.2579 76.3161 45.5373 75.6982 45.5768L53.5194 47.0394C52.786 47.1044 52.0586 46.8631 51.5159 46.3746C50.9732 45.8862 50.6656 45.1959 50.6686 44.4734L49.1778 22.6879V22.3287C49.2049 21.716 49.4794 21.139 49.9406 20.725ZM48.4192 52.736L67.6425 51.5043L67.7733 51.5557C68.5988 51.5692 69.385 51.9039 69.9589 52.4862C70.5328 53.0685 70.8474 53.8507 70.8334 54.6605C70.0759 65.699 61.983 74.922 50.9697 77.2981C39.9564 79.6741 28.6663 74.6329 23.2588 64.9246C21.6687 62.1284 20.6639 59.0489 20.3033 55.8666C20.1635 54.9236 20.1023 53.971 20.1203 53.0183C20.1567 41.2806 28.5136 31.1493 40.2067 28.6668C41.6223 28.4018 43.0415 29.1086 43.6591 30.386C43.8128 30.6178 43.9359 30.8679 44.0252 31.1302C44.2444 34.5137 44.4718 37.8651 44.6982 41.2024C44.877 43.8382 45.0552 46.4653 45.2283 49.0923C45.2194 49.7111 45.3167 50.327 45.516 50.9142C45.9854 52.0694 47.1534 52.8024 48.4192 52.736Z" fill="#FFC147"/>
</svg>
