<svg width="86" height="86" viewBox="0 0 86 86" fill="none" xmlns="http://www.w3.org/2000/svg">
<rect width="86" height="86" fill="#DEF3FF"/>
<path fill-rule="evenodd" clip-rule="evenodd" d="M26.9274 15.0405H46.8626C54.2101 15.0405 58.3013 19.2745 58.3013 26.5292V51.1002C58.3013 58.4739 54.2101 62.6127 46.8626 62.6127H26.9274C19.6965 62.6127 15.4863 58.4739 15.4863 51.1002V26.5292C15.4863 19.2745 19.6965 15.0405 26.9274 15.0405ZM27.568 26.1249V26.1011H34.6777C35.7029 26.1011 36.5354 26.9337 36.5354 27.9541C36.5354 29.0031 35.7029 29.8356 34.6777 29.8356H27.568C26.5428 29.8356 25.7127 29.0031 25.7127 27.9802C25.7127 26.9574 26.5428 26.1249 27.568 26.1249ZM27.568 40.5868H46.2163C47.2391 40.5868 48.0716 39.7543 48.0716 38.7315C48.0716 37.7087 47.2391 36.8738 46.2163 36.8738H27.568C26.5428 36.8738 25.7127 37.7087 25.7127 38.7315C25.7127 39.7543 26.5428 40.5868 27.568 40.5868ZM27.5689 51.4569H46.2172C47.1663 51.3618 47.8822 50.5507 47.8822 49.6016C47.8822 48.6264 47.1663 47.8177 46.2172 47.7225H27.5689C26.8553 47.6512 26.1655 47.9842 25.7849 48.6026C25.4044 49.1973 25.4044 49.9822 25.7849 50.6006C26.1655 51.1953 26.8553 51.5521 27.5689 51.4569Z" fill="#8ED6FF"/>
<rect x="21.8633" y="21.7969" width="30.064" height="35.7285" fill="#8ED6FF"/>
<rect x="35.3774" y="28.4133" width="30.064" height="35.7285" fill="#46BCFF"/>
<path fill-rule="evenodd" clip-rule="evenodd" d="M39.1408 23.3877H59.0759C66.4235 23.3877 70.5147 27.6216 70.5147 34.8764V59.4474C70.5147 66.8211 66.4235 70.9599 59.0759 70.9599H39.1408C31.9098 70.9599 27.6997 66.8211 27.6997 59.4474V34.8764C27.6997 27.6216 31.9098 23.3877 39.1408 23.3877ZM39.7823 34.4724V34.4487H46.892C47.9172 34.4487 48.7497 35.2812 48.7497 36.3016C48.7497 37.3506 47.9172 38.1831 46.892 38.1831H39.7823C38.7572 38.1831 37.927 37.3506 37.927 36.3278C37.927 35.305 38.7572 34.4724 39.7823 34.4724ZM39.7823 48.9345H58.4306C59.4534 48.9345 60.2859 48.102 60.2859 47.0792C60.2859 46.0564 59.4534 45.2215 58.4306 45.2215H39.7823C38.7572 45.2215 37.927 46.0564 37.927 47.0792C37.927 48.102 38.7572 48.9345 39.7823 48.9345ZM39.7832 59.8044H58.4315C59.3806 59.7093 60.0965 58.8982 60.0965 57.9491C60.0965 56.9739 59.3806 56.1652 58.4315 56.07H39.7832C39.0696 55.9987 38.3798 56.3317 37.9993 56.9501C37.6187 57.5448 37.6187 58.3297 37.9993 58.9481C38.3798 59.5428 39.0696 59.8996 39.7832 59.8044Z" fill="#46BCFF"/>
<rect x="37.8501" y="37.4353" width="22.512" height="3.67131" rx="1.83566" fill="#DAFFFF"/>
<rect x="37.8501" y="45.2412" width="19.9129" height="3.67131" rx="1.83566" fill="#DAFFFF"/>
<rect x="37.8501" y="53.0471" width="22.512" height="3.86492" rx="1.93246" fill="#DAFFFF"/>
</svg>
