<svg width="86" height="86" viewBox="0 0 86 86" fill="none" xmlns="http://www.w3.org/2000/svg">
<rect width="86" height="86" fill="#FFE5E9"/>
<path d="M22.965 49.6407C23.5897 49.6407 24.1889 49.3871 24.6307 48.9358C25.0724 48.4844 25.3206 47.8722 25.3206 47.2339V27.2188C25.3206 26.793 25.4861 26.3847 25.7808 26.0836C26.0754 25.7826 26.4751 25.6134 26.8918 25.6134H59.0812C59.4975 25.6141 59.8965 25.7835 60.1907 26.0845C60.4848 26.3855 60.65 26.7934 60.65 27.2188V47.2339C60.65 47.8722 60.8982 48.4844 61.34 48.9358C61.7817 49.3871 62.3809 49.6407 63.0056 49.6407C63.6304 49.6407 64.2295 49.3871 64.6713 48.9358C65.1131 48.4844 65.3612 47.8722 65.3612 47.2339V27.2188C65.36 25.5172 64.698 23.8856 63.5206 22.6821C62.3432 21.4787 60.7466 20.8017 59.0812 20.7998H26.8918C25.2262 20.8017 23.6293 21.4786 22.4515 22.682C21.2737 23.8854 20.6112 25.517 20.6094 27.2188V47.2339C20.6094 47.8722 20.8576 48.4844 21.2993 48.9358C21.7411 49.3871 22.3402 49.6407 22.965 49.6407Z" fill="#FF5F85"/>
<path d="M71.0805 53.754C70.9703 53.61 70.8295 53.4935 70.6687 53.4135C70.5079 53.3334 70.3313 53.2918 70.1524 53.2919H51.3075C50.9952 53.2919 50.6956 53.4187 50.4747 53.6443C50.2538 53.87 50.1297 54.1761 50.1297 54.4953C50.1297 56.2041 47.2276 58.1055 43.0629 58.1055C38.8982 58.1055 35.9961 56.2041 35.9961 54.4953C35.9961 54.1761 35.872 53.87 35.6511 53.6443C35.4302 53.4187 35.1306 53.2919 34.8183 53.2919H15.9734C15.7945 53.2919 15.6179 53.3336 15.4571 53.4138C15.2964 53.494 15.1556 53.6105 15.0455 53.7546C14.9353 53.8986 14.8588 54.0664 14.8216 54.2452C14.7844 54.424 14.7876 54.6091 14.8309 54.7865C15.564 57.7986 17.2633 60.4731 19.6576 62.3833C22.0519 64.2936 25.0034 65.3295 28.0412 65.326H58.0846C61.1223 65.3291 64.0736 64.293 66.4678 62.3828C68.862 60.4726 70.5614 57.7984 71.2949 54.7865C71.3383 54.6091 71.3416 54.4239 71.3044 54.2449C71.2673 54.066 71.1907 53.8981 71.0805 53.754V53.754Z" fill="#FF5F85"/>
</svg>
