<svg width="18" height="19" viewBox="0 0 18 19" fill="none" xmlns="http://www.w3.org/2000/svg">
<path d="M17.8207 6.06709C17.8207 6.06709 17.6449 4.82607 17.1035 4.28115C16.418 3.56396 15.6516 3.56045 15.3 3.51826C12.7828 3.33545 9.00352 3.33545 9.00352 3.33545H8.99648C8.99648 3.33545 5.21719 3.33545 2.7 3.51826C2.34844 3.56045 1.58203 3.56396 0.896484 4.28115C0.355078 4.82607 0.182812 6.06709 0.182812 6.06709C0.182812 6.06709 0 7.52607 0 8.98154V10.3456C0 11.8011 0.179297 13.2601 0.179297 13.2601C0.179297 13.2601 0.355078 14.5011 0.892969 15.046C1.57852 15.7632 2.47852 15.7386 2.8793 15.8159C4.3207 15.953 9 15.9952 9 15.9952C9 15.9952 12.7828 15.9882 15.3 15.8089C15.6516 15.7667 16.418 15.7632 17.1035 15.046C17.6449 14.5011 17.8207 13.2601 17.8207 13.2601C17.8207 13.2601 18 11.8046 18 10.3456V8.98154C18 7.52607 17.8207 6.06709 17.8207 6.06709ZM7.14023 12.0015V6.94248L12.0023 9.48076L7.14023 12.0015Z" fill="#F8F8F3"/>
</svg>
