<svg width="18" height="19" viewBox="0 0 18 19" fill="none" xmlns="http://www.w3.org/2000/svg">
<g clip-path="url(#clip0_234_13437)">
<path d="M16.6676 0.666992H1.32891C0.594141 0.666992 0 1.24707 0 1.96426V17.3662C0 18.0834 0.594141 18.667 1.32891 18.667H16.6676C17.4023 18.667 18 18.0834 18 17.3697V1.96426C18 1.24707 17.4023 0.666992 16.6676 0.666992ZM5.34023 16.0057H2.66836V7.41348H5.34023V16.0057ZM4.0043 6.24277C3.14648 6.24277 2.45391 5.5502 2.45391 4.6959C2.45391 3.8416 3.14648 3.14902 4.0043 3.14902C4.85859 3.14902 5.55117 3.8416 5.55117 4.6959C5.55117 5.54668 4.85859 6.24277 4.0043 6.24277ZM15.3387 16.0057H12.6703V11.8291C12.6703 10.8342 12.6527 9.55098 11.2816 9.55098C9.89297 9.55098 9.68203 10.6373 9.68203 11.7588V16.0057H7.01719V7.41348H9.57656V8.5877H9.61172C9.9668 7.9127 10.8387 7.19902 12.1359 7.19902C14.8395 7.19902 15.3387 8.97793 15.3387 11.2912V16.0057Z" fill="#F8F8F3"/>
</g>
<defs>
<clipPath id="clip0_234_13437">
<rect width="18" height="18" fill="white" transform="translate(0 0.666992)"/>
</clipPath>
</defs>
</svg>
