<svg width="86" height="86" viewBox="0 0 86 86" fill="none" xmlns="http://www.w3.org/2000/svg">
<rect width="86" height="86" fill="#FFE5E9"/>
<path d="M65.442 64.1239C65.2356 65.8645 63.7823 67.1599 62.0822 67.1599C60.3375 67.1599 58.8842 65.8645 58.7223 64.1239V50.8464C58.5604 49.547 59.1636 48.3366 60.2606 47.6484C61.394 46.9603 62.7703 46.9603 63.8593 47.6484C64.9563 48.3366 65.5594 49.547 65.442 50.8464V64.1239Z" fill="#FF5F85"/>
<path d="M46.8172 64.1233C46.6553 65.8639 45.202 67.1593 43.4573 67.1593C41.7572 67.1593 40.3039 65.8639 40.0975 64.1233V22.874C39.9801 21.6191 40.5832 20.3601 41.6803 19.676C42.7692 18.9879 44.1455 18.9879 45.283 19.676C46.376 20.3601 46.9791 21.6191 46.8172 22.874V64.1233Z" fill="#FF5F85"/>
<path d="M27.9537 64.1234C27.7918 65.864 26.3386 67.1594 24.5939 67.1594C22.8532 67.1594 21.3959 65.864 21.2381 64.1234V36.1516C21.1166 34.8926 21.7198 33.6418 22.8168 32.9536C23.9057 32.2655 25.2861 32.2655 26.379 32.9536C27.468 33.6418 28.0792 34.8926 27.9537 36.1516V64.1234Z" fill="#FF5F85"/>
</svg>
