<svg width="86" height="86" viewBox="0 0 86 86" fill="none" xmlns="http://www.w3.org/2000/svg">
<rect width="86" height="86" fill="#DEF3FF"/>
<path fill-rule="evenodd" clip-rule="evenodd" d="M42.3355 69.5635C42.6316 69.7181 42.9626 69.7968 43.2936 69.7941C43.6246 69.7915 43.9529 69.7103 44.2516 69.553L53.789 64.4546C56.4936 63.0129 58.6115 61.4008 60.2639 59.524C63.8565 55.4348 65.8184 50.2158 65.7834 44.8343L65.6704 27.083C65.6596 25.0384 64.3167 23.214 62.3307 22.5509L44.588 16.5979C43.5196 16.2362 42.349 16.2441 41.2994 16.6163L23.6241 22.7815C21.6488 23.4709 20.3301 25.3084 20.3409 27.3557L20.4539 45.0938C20.4889 50.4832 22.518 55.6786 26.1699 59.7258C27.8384 61.5764 29.9752 63.1649 32.7093 64.583L42.3355 69.5635ZM39.8097 48.7005C40.208 49.0832 40.7247 49.272 41.2414 49.2667C41.7581 49.2641 42.2721 49.0701 42.665 48.6822L53.0878 38.4068C53.8709 37.6335 53.8628 36.391 53.0716 35.6282C52.2777 34.8654 50.9994 34.8707 50.2163 35.6439L41.2118 44.5196L37.5249 40.9756C36.731 40.2128 35.4555 40.2207 34.6696 40.994C33.8865 41.7673 33.8946 43.0097 34.6885 43.7725L39.8097 48.7005Z" fill="#46BCFF"/>
</svg>
