<svg width="18" height="19" viewBox="0 0 18 19" fill="none" xmlns="http://www.w3.org/2000/svg">
<g clip-path="url(#clip0_234_13440)">
<path d="M9 2.2877C11.4047 2.2877 11.6895 2.29824 12.6352 2.34043C13.5141 2.3791 13.9887 2.52676 14.3051 2.6498C14.7234 2.81152 15.0258 3.0084 15.3387 3.32129C15.6551 3.6377 15.8484 3.93652 16.0102 4.35488C16.1332 4.67129 16.2809 5.14941 16.3195 6.0248C16.3617 6.97402 16.3723 7.25879 16.3723 9.65996C16.3723 12.0646 16.3617 12.3494 16.3195 13.2951C16.2809 14.174 16.1332 14.6486 16.0102 14.965C15.8484 15.3834 15.6516 15.6857 15.3387 15.9986C15.0223 16.315 14.7234 16.5084 14.3051 16.6701C13.9887 16.7932 13.5105 16.9408 12.6352 16.9795C11.6859 17.0217 11.4012 17.0322 9 17.0322C6.59531 17.0322 6.31055 17.0217 5.36484 16.9795C4.48594 16.9408 4.01133 16.7932 3.69492 16.6701C3.27656 16.5084 2.97422 16.3115 2.66133 15.9986C2.34492 15.6822 2.15156 15.3834 1.98984 14.965C1.8668 14.6486 1.71914 14.1705 1.68047 13.2951C1.63828 12.3459 1.62773 12.0611 1.62773 9.65996C1.62773 7.25527 1.63828 6.97051 1.68047 6.0248C1.71914 5.1459 1.8668 4.67129 1.98984 4.35488C2.15156 3.93652 2.34844 3.63418 2.66133 3.32129C2.97773 3.00488 3.27656 2.81152 3.69492 2.6498C4.01133 2.52676 4.48945 2.3791 5.36484 2.34043C6.31055 2.29824 6.59531 2.2877 9 2.2877ZM9 0.666992C6.55664 0.666992 6.25078 0.677539 5.29102 0.719727C4.33477 0.761914 3.67734 0.916601 3.10781 1.13809C2.51367 1.37012 2.01094 1.67598 1.51172 2.17871C1.00898 2.67793 0.703125 3.18066 0.471094 3.77129C0.249609 4.34434 0.0949219 4.99824 0.0527344 5.95449C0.0105469 6.91777 0 7.22363 0 9.66699C0 12.1104 0.0105469 12.4162 0.0527344 13.376C0.0949219 14.3322 0.249609 14.9896 0.471094 15.5592C0.703125 16.1533 1.00898 16.6561 1.51172 17.1553C2.01094 17.6545 2.51367 17.9639 3.1043 18.1924C3.67734 18.4139 4.33125 18.5686 5.2875 18.6107C6.24727 18.6529 6.55312 18.6635 8.99648 18.6635C11.4398 18.6635 11.7457 18.6529 12.7055 18.6107C13.6617 18.5686 14.3191 18.4139 14.8887 18.1924C15.4793 17.9639 15.982 17.6545 16.4813 17.1553C16.9805 16.6561 17.2898 16.1533 17.5184 15.5627C17.7398 14.9896 17.8945 14.3357 17.9367 13.3795C17.9789 12.4197 17.9895 12.1139 17.9895 9.67051C17.9895 7.22715 17.9789 6.92129 17.9367 5.96152C17.8945 5.00527 17.7398 4.34785 17.5184 3.77832C17.2969 3.18066 16.991 2.67793 16.4883 2.17871C15.9891 1.67949 15.4863 1.37012 14.8957 1.1416C14.3227 0.920117 13.6688 0.76543 12.7125 0.723242C11.7492 0.677539 11.4434 0.666992 9 0.666992Z" fill="#F8F8F3"/>
<path d="M9 5.04395C6.44766 5.04395 4.37695 7.11465 4.37695 9.66699C4.37695 12.2193 6.44766 14.29 9 14.29C11.5523 14.29 13.623 12.2193 13.623 9.66699C13.623 7.11465 11.5523 5.04395 9 5.04395ZM9 12.6658C7.34414 12.6658 6.00117 11.3229 6.00117 9.66699C6.00117 8.01113 7.34414 6.66816 9 6.66816C10.6559 6.66816 11.9988 8.01113 11.9988 9.66699C11.9988 11.3229 10.6559 12.6658 9 12.6658Z" fill="#F8F8F3"/>
<path d="M14.8852 4.86104C14.8852 5.45869 14.4 5.94033 13.8059 5.94033C13.2082 5.94033 12.7266 5.45518 12.7266 4.86104C12.7266 4.26338 13.2117 3.78174 13.8059 3.78174C14.4 3.78174 14.8852 4.2669 14.8852 4.86104Z" fill="#F8F8F3"/>
</g>
<defs>
<clipPath id="clip0_234_13440">
<rect width="18" height="18" fill="white" transform="translate(0 0.666992)"/>
</clipPath>
</defs>
</svg>
