<svg width="18" height="19" viewBox="0 0 18 19" fill="none" xmlns="http://www.w3.org/2000/svg">
<g clip-path="url(#clip0_204_51848)">
<path d="M16.6676 0.646362H1.32891C0.594141 0.646362 0 1.22644 0 1.94363V17.3456C0 18.0628 0.594141 18.6464 1.32891 18.6464H16.6676C17.4023 18.6464 18 18.0628 18 17.3491V1.94363C18 1.22644 17.4023 0.646362 16.6676 0.646362ZM5.34023 15.985H2.66836V7.39285H5.34023V15.985ZM4.0043 6.22214C3.14648 6.22214 2.45391 5.52957 2.45391 4.67527C2.45391 3.82097 3.14648 3.12839 4.0043 3.12839C4.85859 3.12839 5.55117 3.82097 5.55117 4.67527C5.55117 5.52605 4.85859 6.22214 4.0043 6.22214ZM15.3387 15.985H12.6703V11.8085C12.6703 10.8135 12.6527 9.53035 11.2816 9.53035C9.89297 9.53035 9.68203 10.6167 9.68203 11.7382V15.985H7.01719V7.39285H9.57656V8.56707H9.61172C9.9668 7.89207 10.8387 7.17839 12.1359 7.17839C14.8395 7.17839 15.3387 8.9573 15.3387 11.2706V15.985Z" fill="#3B3B33"/>
</g>
<defs>
<clipPath id="clip0_204_51848">
<rect width="18" height="18" fill="white" transform="translate(0 0.646362)"/>
</clipPath>
</defs>
</svg>
