<svg width="202" height="36" viewBox="0 0 202 36" fill="none" xmlns="http://www.w3.org/2000/svg">
<path d="M26.6104 11.6345C27.0971 12.5679 27.4852 13.5369 27.8276 14.4702L34.4084 12.7114C33.9213 11.7422 33.3356 10.8805 32.6548 10.0549C31.6317 8.90614 30.4639 7.93689 29.1931 7.18304C26.7094 5.74713 23.7347 5.137 20.764 5.53188C22.0802 6.28574 23.2974 7.25498 24.3205 8.40371C25.2489 9.37295 25.979 10.4858 26.6104 11.6345Z" fill="#3B3B33"/>
<path d="M16.6669 31.3421C18.9071 30.696 20.8587 29.5833 22.4182 28.0756C16.6668 31.3423 5.70448 27.5371 7.65172 15.8703C8.7742 10.8087 12.768 5.78282 18.6638 4.16742C22.6619 3.09048 26.7051 3.77261 30.0679 5.6752C31.7221 6.64444 33.1869 7.901 34.4041 9.40871C30.5053 2.26504 22.0758 -1.57602 13.8408 0.613743C-6.33467 5.99842 -2.19249 36.3678 16.6669 31.3421Z" fill="#3B3B33"/>
<path d="M27.2415 23.9474C26.9488 24.6654 26.6558 25.3474 26.2681 26.0294C24.3165 29.332 21.1517 31.9168 17.1042 32.9937C13.9398 33.8553 10.7218 33.6037 7.89545 32.5268C12.137 35.614 17.6903 36.8706 23.1984 35.3629C30.7526 33.3526 35.9182 26.819 36.5 19.4241L30.5053 21.0395C28.9458 21.4703 27.8233 22.4756 27.2415 23.9474Z" fill="#3B3B33"/>
<path d="M60.114 15.6821C58.95 15.3113 57.7859 14.9934 56.4896 14.9934C53.1297 14.9934 51.1456 17.2185 51.1456 20.2649C51.1456 23.2848 53.1297 25.5364 56.4896 25.5364C57.8124 25.5364 58.9764 25.1921 60.114 24.8477V27.3907C58.8706 27.7881 57.6536 28 56.4631 28C51.7805 28 48.5 24.7947 48.5 20.2649C48.5 15.7351 51.7805 12.5298 56.4631 12.5298C57.6536 12.5298 58.8706 12.7417 60.114 13.1391V15.6821Z" fill="#3B3B33"/>
<path d="M69.2701 12.5298C73.7411 12.5298 76.9158 15.894 76.9158 20.2649C76.9158 24.6358 73.7411 28 69.2701 28C64.7991 28 61.6245 24.6358 61.6245 20.2649C61.6245 15.894 64.7991 12.5298 69.2701 12.5298ZM64.27 20.2649C64.27 23.2583 66.2013 25.5629 69.2701 25.5629C72.339 25.5629 74.2438 23.2583 74.2438 20.2649C74.2438 17.2715 72.339 14.9669 69.2701 14.9669C66.2013 14.9669 64.27 17.2715 64.27 20.2649Z" fill="#3B3B33"/>
<path d="M79.2598 12.8477H81.8789V15.6821C82.6197 13.5629 84.3128 12.5298 86.4028 12.5298C89.2071 12.5298 91.5617 14.4371 91.5617 18.4371V27.6821H88.9161V18.649C88.9161 16.3709 87.8314 14.8344 85.5298 14.8344C83.0694 14.8344 81.9054 16.6093 81.9054 19.0464V27.6821H79.2598V12.8477Z" fill="#3B3B33"/>
<path d="M99.8567 27.8411C96.8937 27.8411 95.6238 26.4371 95.6238 23.6026V15.2318H93.3751V12.8477H95.6238V9.8543L98.2694 9.08609V12.8477H102.132V15.2318H98.2694V23.2053C98.2694 25.0066 98.825 25.404 100.227 25.404C100.889 25.404 101.55 25.3245 102.132 25.2185V27.6291C101.365 27.7616 100.624 27.8411 99.8567 27.8411Z" fill="#3B3B33"/>
<path d="M104.527 12.8477H107.173V27.6821H104.527V12.8477ZM104.501 10.4106V8H107.252V10.4106H104.501Z" fill="#3B3B33"/>
<path d="M110.211 12.8477H112.83V15.6821C113.571 13.5629 115.264 12.5298 117.354 12.5298C120.158 12.5298 122.513 14.4371 122.513 18.4371V27.6821H119.867V18.649C119.867 16.3709 118.782 14.8344 116.481 14.8344C114.02 14.8344 112.856 16.6093 112.856 19.0464V27.6821H110.211V12.8477Z" fill="#3B3B33"/>
<path d="M131.459 28C127.49 28 125.427 25.5894 125.427 21.6159V12.8477H128.072V21.8013C128.072 24 129.183 25.5894 131.485 25.5894C133.84 25.5894 134.871 23.9735 134.871 21.7483V12.8477H137.517V21.6159C137.517 25.5894 135.427 28 131.459 28Z" fill="#3B3B33"/>
<path d="M146.469 28C142.501 28 140.437 25.5894 140.437 21.6159V12.8477H143.083V21.8013C143.083 24 144.194 25.5894 146.495 25.5894C148.85 25.5894 149.882 23.9735 149.882 21.7483V12.8477H152.527V21.6159C152.527 25.5894 150.437 28 146.469 28Z" fill="#3B3B33"/>
<path d="M155.501 12.8477H158.12V15.6556C158.834 13.5629 160.501 12.5298 162.511 12.5298C164.575 12.5298 166.4 13.6424 167.167 15.9205C167.908 13.6424 169.76 12.5298 171.85 12.5298C174.601 12.5298 176.903 14.4371 176.903 18.4371V27.6821H174.258V18.649C174.258 16.3709 173.226 14.8344 171.03 14.8344C168.649 14.8344 167.538 16.6093 167.538 19.0464V27.6821H164.892V18.649C164.892 16.3709 163.861 14.8344 161.638 14.8344C159.257 14.8344 158.146 16.6093 158.146 19.0464V27.6821H155.501V12.8477Z" fill="#3B3B33"/>
<path d="M179.546 24.7152H182.668V27.6821H179.546V24.7152Z" fill="#3B3B33"/>
<path d="M184.553 24C184.553 21.9868 185.849 20.4768 188.203 19.7351L193.177 18.1192C193.045 15.8411 191.96 14.9404 189.817 14.9404C188.574 14.9404 187.225 15.2318 185.293 15.9735V13.4305C186.96 12.9007 188.6 12.5298 190.135 12.5298C194.077 12.5298 195.823 14.9934 195.823 18.543V27.6821H193.23V25.5099C192.41 27.0464 190.822 28 188.865 28C186.166 28 184.553 26.2517 184.553 24ZM187.225 23.7881C187.225 24.9801 188.177 25.8808 189.632 25.8808C191.431 25.8808 193.177 24.5298 193.177 22.5166V20.2914L189.235 21.5629C187.859 21.9868 187.225 22.7815 187.225 23.7881Z" fill="#3B3B33"/>
<path d="M198.775 12.8477H201.421V27.6821H198.775V12.8477ZM198.749 10.4106V8H201.5V10.4106H198.749Z" fill="#3B3B33"/>
</svg>
