<svg width="148" height="23" viewBox="0 0 148 23" fill="none" xmlns="http://www.w3.org/2000/svg">
<path d="M7.62395 7.17044L10.6322 1.11232C10.7197 0.936998 10.8544 0.789535 11.0211 0.686469C11.1878 0.583403 11.3799 0.528809 11.5758 0.528809C11.7718 0.528809 11.9639 0.583403 12.1306 0.686469C12.2973 0.789535 12.432 0.936998 12.5195 1.11232L15.5277 7.17044L22.2528 8.1477C22.4468 8.1746 22.6293 8.25549 22.7795 8.38114C22.9297 8.5068 23.0416 8.67215 23.1023 8.85833C23.163 9.04451 23.1702 9.24401 23.123 9.43407C23.0757 9.62412 22.976 9.79707 22.8352 9.93318L17.9698 14.6458L19.1184 21.3037C19.2654 22.1582 18.3623 22.809 17.59 22.406L11.5758 19.2612L5.56058 22.406C4.78942 22.8101 3.88626 22.1582 4.03331 21.3026L5.18194 14.6447L0.316463 9.93202C0.176341 9.79582 0.0772391 9.62304 0.0304207 9.43333C-0.0163977 9.24361 -0.00905427 9.04457 0.0516161 8.85882C0.112286 8.67307 0.22385 8.50806 0.373627 8.38256C0.523403 8.25706 0.705384 8.17609 0.898885 8.14886L7.62395 7.17044Z" fill="#FFC147"/>
<path d="M38.7782 7.17044L41.7865 1.11232C41.874 0.936998 42.0087 0.789535 42.1754 0.686469C42.3421 0.583403 42.5342 0.528809 42.7301 0.528809C42.9261 0.528809 43.1182 0.583403 43.2849 0.686469C43.4516 0.789535 43.5863 0.936998 43.6738 1.11232L46.682 7.17044L53.4071 8.1477C53.6011 8.1746 53.7836 8.25549 53.9338 8.38114C54.084 8.5068 54.1959 8.67215 54.2566 8.85833C54.3173 9.04451 54.3245 9.24401 54.2773 9.43407C54.23 9.62412 54.1303 9.79707 53.9895 9.93318L49.124 14.6458L50.2727 21.3037C50.4197 22.1582 49.5166 22.809 48.7443 22.406L42.7301 19.2612L36.7149 22.406C35.9437 22.8101 35.0406 22.1582 35.1876 21.3026L36.3362 14.6447L31.4708 9.93202C31.3306 9.79582 31.2315 9.62304 31.1847 9.43333C31.1379 9.24361 31.1452 9.04457 31.2059 8.85882C31.2666 8.67307 31.3781 8.50806 31.5279 8.38256C31.6777 8.25706 31.8597 8.17609 32.0532 8.14886L38.7782 7.17044Z" fill="#FFC147"/>
<path d="M69.9325 7.17044L72.9408 1.11232C73.0283 0.936998 73.163 0.789535 73.3297 0.686469C73.4964 0.583403 73.6885 0.528809 73.8844 0.528809C74.0804 0.528809 74.2725 0.583403 74.4392 0.686469C74.6059 0.789535 74.7406 0.936998 74.8281 1.11232L77.8363 7.17044L84.5614 8.1477C84.7554 8.1746 84.9379 8.25549 85.0881 8.38114C85.2383 8.5068 85.3502 8.67215 85.4109 8.85833C85.4716 9.04451 85.4788 9.24401 85.4316 9.43407C85.3843 9.62412 85.2846 9.79707 85.1438 9.93318L80.2783 14.6458L81.427 21.3037C81.574 22.1582 80.6709 22.809 79.8986 22.406L73.8844 19.2612L67.8692 22.406C67.098 22.8101 66.1949 22.1582 66.3419 21.3026L67.4905 14.6447L62.6251 9.93202C62.4849 9.79582 62.3858 9.62304 62.339 9.43333C62.2922 9.24361 62.2995 9.04457 62.3602 8.85882C62.4209 8.67307 62.5324 8.50806 62.6822 8.38256C62.832 8.25706 63.014 8.17609 63.2075 8.14886L69.9325 7.17044Z" fill="#FFC147"/>
<path d="M101.085 7.17044L104.093 1.11232C104.181 0.936998 104.315 0.789535 104.482 0.686469C104.649 0.583403 104.841 0.528809 105.037 0.528809C105.233 0.528809 105.425 0.583403 105.592 0.686469C105.758 0.789535 105.893 0.936998 105.98 1.11232L108.989 7.17044L115.714 8.1477C115.908 8.1746 116.09 8.25549 116.24 8.38114C116.391 8.5068 116.502 8.67215 116.563 8.85833C116.624 9.04451 116.631 9.24401 116.584 9.43407C116.537 9.62412 116.437 9.79707 116.296 9.93318L111.431 14.6458L112.579 21.3037C112.726 22.1582 111.823 22.809 111.051 22.406L105.037 19.2612L99.0215 22.406C98.2504 22.8101 97.3472 22.1582 97.4942 21.3026L98.6429 14.6447L93.7774 9.93202C93.6373 9.79582 93.5382 9.62304 93.4914 9.43333C93.4445 9.24361 93.4519 9.04457 93.5126 8.85882C93.5732 8.67307 93.6848 8.50806 93.8346 8.38256C93.9843 8.25706 94.1663 8.17609 94.3598 8.14886L101.085 7.17044Z" fill="#FFC147"/>
<path d="M132.239 7.17044L135.247 1.11232C135.335 0.936998 135.47 0.789535 135.636 0.686469C135.803 0.583403 135.995 0.528809 136.191 0.528809C136.387 0.528809 136.579 0.583403 136.746 0.686469C136.913 0.789535 137.047 0.936998 137.135 1.11232L140.143 7.17044L146.868 8.1477C147.062 8.1746 147.245 8.25549 147.395 8.38114C147.545 8.5068 147.657 8.67215 147.718 8.85833C147.778 9.04451 147.785 9.24401 147.738 9.43407C147.691 9.62412 147.591 9.79707 147.45 9.93318L142.585 14.6458L143.734 21.3037C143.881 22.1582 142.978 22.809 142.205 22.406L136.191 19.2612L130.176 22.406C129.405 22.8101 128.501 22.1582 128.649 21.3026L129.797 14.6447L124.932 9.93202C124.792 9.79582 124.692 9.62304 124.646 9.43333C124.599 9.24361 124.606 9.04457 124.667 8.85882C124.728 8.67307 124.839 8.50806 124.989 8.38256C125.139 8.25706 125.321 8.17609 125.514 8.14886L132.239 7.17044Z" fill="#FFC147"/>
</svg>
