<svg width="86" height="86" viewBox="0 0 86 86" fill="none" xmlns="http://www.w3.org/2000/svg">
<rect width="86" height="86" fill="#FFF1D7"/>
<path fill-rule="evenodd" clip-rule="evenodd" d="M39.9731 22.838C38.3746 22.838 37.0146 23.9489 36.6328 25.4461H49.4691C49.0874 23.9489 47.7274 22.838 46.1288 22.838H39.9731ZM53.0954 25.4462H57.8196C62.83 25.4462 66.9099 29.5756 66.9099 34.6469C66.9099 34.6469 66.7668 36.7938 66.7191 39.7834C66.7143 40.0201 66.5998 40.2519 66.4113 40.392C65.2637 41.2396 64.2138 41.9399 64.1184 41.9882C60.1578 44.6446 55.5553 46.5138 50.6523 47.4435C50.3325 47.5063 50.0176 47.3397 49.8554 47.0547C48.4811 44.6736 45.9138 43.1233 43.0507 43.1233C40.2067 43.1233 37.6156 44.6567 36.2007 47.0402C36.0361 47.3204 35.7259 47.4822 35.4086 47.4218C30.5461 46.4896 25.9436 44.6229 22.0069 42.0124L19.7164 40.4186C19.5255 40.2978 19.4062 40.0805 19.4062 39.839C19.3346 38.6074 19.2153 34.6469 19.2153 34.6469C19.2153 29.5756 23.2953 25.4462 28.3057 25.4462H33.006C33.4593 21.9445 36.394 19.2157 39.9729 19.2157H46.1285C49.7074 19.2157 52.6421 21.9445 53.0954 25.4462ZM66.0979 45.0072L66.0025 45.0555C61.1829 48.2914 55.3851 50.4407 49.301 51.3342C48.4421 51.4549 47.5831 50.8995 47.3446 50.0302C46.8196 48.0499 45.1256 46.7459 43.0976 46.7459H43.0737H43.026C40.998 46.7459 39.304 48.0499 38.7791 50.0302C38.5405 50.8995 37.6816 51.4549 36.8226 51.3342C30.7385 50.4407 24.9407 48.2914 20.1212 45.0555C20.0973 45.0313 19.8587 44.8864 19.6678 45.0072C19.4531 45.1279 19.4531 45.4177 19.4531 45.4177L19.6201 57.7337C19.6201 62.805 23.6762 66.9103 28.6866 66.9103H57.4132C62.4236 66.9103 66.4797 62.805 66.4797 57.7337L66.6705 45.4177C66.6705 45.4177 66.6705 45.1279 66.4558 45.0072C66.3365 44.9347 66.1933 44.9589 66.0979 45.0072ZM44.8396 55.1256C44.8396 56.1398 44.0522 56.9367 43.0501 56.9367C42.0719 56.9367 41.2607 56.1398 41.2607 55.1256V52.0103C41.2607 51.0202 42.0719 50.1991 43.0501 50.1991C44.0522 50.1991 44.8396 51.0202 44.8396 52.0103V55.1256Z" fill="#FFC147"/>
</svg>
