<svg width="98" height="98" viewBox="0 0 98 98" fill="none" xmlns="http://www.w3.org/2000/svg">
<rect width="98" height="98" fill="#FFE5E9"/>
<path d="M35.0439 35.2284C34.0027 35.83 33.1438 36.7024 32.5584 37.7528C31.973 38.8033 31.6829 39.9926 31.7189 41.1946L32.037 52.5761C32.0436 52.7912 32.1022 53.0015 32.2078 53.189C32.3134 53.3766 32.4628 53.5357 32.6434 53.6528L50.0124 64.9324C50.1929 65.0497 50.399 65.1215 50.6133 65.1417C50.8275 65.1619 51.0435 65.1299 51.2426 65.0484L61.7874 60.7213C62.8993 60.2636 63.8665 59.5134 64.5865 58.5504C65.3064 57.5873 65.7522 56.4473 65.8765 55.2513L69.3045 22.7425C69.3283 22.5131 69.3327 22.2822 69.3176 22.0521C69.3082 21.9127 69.2551 21.7797 69.1659 21.6721C69.0767 21.5645 68.9559 21.4876 68.8206 21.4525C68.6853 21.4173 68.5424 21.4256 68.4121 21.4762C68.2818 21.5268 68.1707 21.6171 68.0945 21.7344L54.846 42.1353C54.718 42.3315 54.6441 42.558 54.6316 42.7919C54.6191 43.0259 54.6685 43.259 54.7749 43.4677C55.3074 44.5127 55.4801 45.7043 55.2664 46.8575C55.0526 48.0108 54.4643 49.0613 53.5927 49.8461C52.7211 50.6309 51.6148 51.1062 50.4456 51.1982C49.2763 51.2903 48.1093 50.9939 47.1256 50.3551C46.142 49.7163 45.3966 48.7707 45.0051 47.6651C44.6135 46.5595 44.5978 45.3556 44.9602 44.2401C45.3227 43.1246 46.0431 42.1599 47.0097 41.4956C47.9763 40.8312 49.1351 40.5044 50.3064 40.5658C50.5403 40.5781 50.7734 40.5284 50.982 40.4219C51.1906 40.3153 51.3674 40.1556 51.4946 39.9589L64.7432 19.558C64.8193 19.4407 64.8566 19.3025 64.8498 19.1629C64.843 19.0233 64.7925 18.8893 64.7054 18.78C64.6182 18.6707 64.4989 18.5916 64.3643 18.5539C64.2297 18.5162 64.0866 18.5218 63.9554 18.5699C63.7391 18.6497 63.5299 18.7476 63.3301 18.8627L35.0439 35.2284Z" fill="#FF5F85"/>
<path d="M32.0598 56.4524C31.8106 56.2906 31.5144 56.2169 31.2184 56.2428C30.9224 56.2687 30.6436 56.3929 30.4263 56.5955L22.3883 64.0815C22.2403 64.2195 22.1257 64.3894 22.0531 64.5783C21.9806 64.7672 21.9521 64.9701 21.9697 65.1716C21.9873 65.3732 22.0505 65.5681 22.1547 65.7416C22.2589 65.915 22.4012 66.0625 22.5708 66.1727L42.6791 79.2312C42.8488 79.3413 43.0414 79.4113 43.2422 79.436C43.443 79.4606 43.6468 79.4391 43.8381 79.3732C44.0294 79.3073 44.2032 79.1987 44.3462 79.0556C44.4893 78.9125 44.5979 78.7387 44.6637 78.5474L48.2332 68.1595C48.3299 67.8785 48.3299 67.5733 48.2332 67.2924C48.1365 67.0114 47.9487 66.7709 47.6995 66.609L32.0598 56.4524Z" fill="#FF5F85"/>
</svg>
